<svg xmlns="http://www.w3.org/2000/svg" xml:space="preserve" fill-rule="evenodd" stroke-linejoin="round" stroke-miterlimit="2" clip-rule="evenodd" viewBox="0 0 128 128">
  <path fill="none" d="M0 0h128v128H0zm68.497 62.682h-.166"/>
  <path fill="url(#a)" fill-rule="nonzero" d="M96.018 52.326H33.01s.647 4.44 1.436 6.054c.859 1.752 3.659 5.799 5.13 7.08 1.353 1.178 3.189 2.374 6.567 3.783 3.678 1.532 7.961.697 11.923 3.975.952.787 2.387 2.572 2.37 5.905-.012 2.218-.662 4.545-2.159 5.833-1.317 1.131-3.639 2.228-5.368 2.393-4.147.398-7.065 3.584-7.764 5.97-.097.339-.198 2.289-.198 2.289H84.05s-.072-1.95-.169-2.289c-.697-2.386-3.613-5.572-7.759-5.97-1.727-.165-4.053-1.262-5.368-2.393-1.5-1.288-2.149-3.615-2.161-5.833-.015-3.334 1.813-5.118 2.767-5.905 3.962-3.278 7.847-2.445 11.524-3.975 3.379-1.409 5.216-2.603 6.569-3.783 1.47-1.281 4.273-5.327 5.129-7.08.79-1.614 1.436-6.054 1.436-6.054Z"/>
  <path fill="url(#b)" fill-rule="nonzero" d="M122.993 49.402c-2.36-8.351-10.159-18.48-24.369-19.539-6.131-.456-8.687-4.962-9.036-5.636-1.073-2.586-8.428-18.628-25.812-18.628-8.743 0-14.708 3.6-18.615 7.527-3.437 3.465-5.873 8.901-6.667 10.819l-.018.103c-.009.051-1.14 5.083-9.984 5.87-18.234 1.625-23.013 17.595-23.535 19.57-1.201 4.417-1.164 8.453-.482 11.981.015.041.031.073.044.113 0 0 2.13 9.208 9.841 16.181a9.144 9.144 0 0 1 1.972 1.735c.135.144.246.292.35.441 1.274 1.689 2.321 4.309 1.369 8.052-4.11 16.153 4.675 24.42 8.897 28.395l.352.331c3.707 3.505 9.995 5.684 16.413 5.684 5.247 0 10.293-1.425 14.591-4.122 1.427-.894 3.018-1.329 4.865-1.329 3.325 0 6.135 1.432 6.138 1.432v-.003l.251.131c.672.331 6.811 3.239 14.498 3.239 5.985 0 11.278-1.716 15.738-5.105 10.731-8.142 11.104-20.465 9.634-26.462l-.041-.155c-.018-.075-1.814-7.383 3.458-11.644 9.356-7.558 13.147-18.396 10.148-28.981Zm-18.777 18.306c-9.677 7.823-9.677 19.767-8.124 25.733.215 1.038 1.329 7.77-4.596 12.267-2.047 1.553-4.48 2.31-7.435 2.31-4.277 0-7.991-1.627-8.402-1.813-1.182-.61-6.196-2.986-12.487-2.986-4.442 0-8.534 1.154-12.161 3.427-2.12 1.329-4.297 1.818-6.04 1.964-2.896.438-6.335.212-9.172-2.142-5.976-4.959-5.027-11.569-5.027-11.569.003-.032.015-.057.018-.087.078-1.047.253-2.179.572-3.433C34.435 79.303 28.15 70.946 22.883 67c-2.447-2.286-3.563-4.205-4.028-5.219-.963-2.294-1.57-5.297-.641-8.706l.05-.203c.022-.084 2.136-8.447 11.447-9.276 14.114-1.257 20.189-9.759 21.905-15.585.867-1.941 1.786-3.462 1.894-3.641 1.756-2.324 4.939-5.04 10.266-5.04 8.981 0 12.959 9.74 13.107 10.109l.157.376c2.114 4.692 8.826 12.867 20.564 13.742 9.4.698 11.919 8.671 12.175 9.58.868 3.063 1.297 9.021-5.563 14.571Z"/>
  <defs>
    <linearGradient id="a" x1="0" x2="1" y1="0" y2="0" gradientTransform="rotate(-90 80.061 15.547) scale(43.2829)" gradientUnits="userSpaceOnUse">
      <stop offset="0" stop-color="#878787"/>
      <stop offset="1" stop-color="#c6c6c6"/>
    </linearGradient>
    <linearGradient id="b" x1="0" x2="1" y1="0" y2="0" gradientTransform="rotate(-40.121 160.666 36.84) scale(113.7056)" gradientUnits="userSpaceOnUse">
      <stop offset="0" stop-color="#e7411b"/>
      <stop offset="1" stop-color="#f39200"/>
    </linearGradient>
  </defs>
</svg>
